<svg width="79" height="69" viewBox="0 0 79 69" fill="none" xmlns="http://www.w3.org/2000/svg">
<path d="M59.2875 29.3912C59.7147 31.0505 59.9311 32.7695 59.9311 34.5C59.9311 45.7656 50.7657 54.931 39.5 54.931C28.2344 54.931 19.069 45.7656 19.069 34.5C19.069 23.2343 28.2344 14.0689 39.5 14.0689C44.1898 14.0689 48.6 15.614 52.2536 18.5374C52.8412 19.0073 53.6982 18.9121 54.1681 18.3247C54.6381 17.7373 54.5429 16.8802 53.9555 16.4102C49.8729 13.1437 44.7391 11.3448 39.5 11.3448C26.7322 11.3448 16.3448 21.7321 16.3448 34.5C16.3448 47.2678 26.7322 57.6551 39.5 57.6551C52.2677 57.6551 62.6552 47.2678 62.6552 34.5C62.6552 32.5406 62.4099 30.5934 61.9258 28.7122C61.7382 27.9837 60.9959 27.5452 60.2672 27.7325C59.5386 27.9201 59.1 28.6626 59.2875 29.3912Z" fill="#00B4AB"/>
<path d="M55.9506 20.1409C55.3545 20.5996 55.243 21.4548 55.7016 22.051C56.3597 22.9062 56.9537 23.819 57.4669 24.7643C57.7138 25.2189 58.1818 25.4766 58.665 25.4766C58.8846 25.4766 59.1075 25.4233 59.314 25.3113C59.975 24.9522 60.2198 24.1255 59.8609 23.4644C59.2791 22.3931 58.6062 21.3588 57.8609 20.39C57.402 19.7937 56.5471 19.6821 55.9506 20.1409Z" fill="#00B4AB"/>
<path d="M44.7758 35.8621H57.2069C57.9591 35.8621 58.569 35.2522 58.569 34.5C58.569 33.7478 57.9591 33.1379 57.2069 33.1379H44.7758C44.5247 32.1657 44.0107 31.2988 43.3153 30.6155L49.533 19.8463C49.9093 19.1949 49.6859 18.3619 49.0345 17.9858C48.3831 17.6095 47.55 17.8329 47.1739 18.4843L40.9576 29.2512C40.4933 29.1222 40.0048 29.0517 39.5 29.0517C38.9952 29.0517 38.5067 29.1222 38.0424 29.2512L31.8261 18.4843C31.45 17.8329 30.6169 17.61 29.9655 17.9858C29.3141 18.3619 29.0909 19.1949 29.467 19.8463L35.6847 30.6155C34.9893 31.2986 34.4753 32.1657 34.2242 33.1377H21.7931C21.0409 33.1377 20.431 33.7476 20.431 34.4998C20.431 35.252 21.0409 35.8619 21.7931 35.8619H34.2242C34.4753 36.8339 34.9893 37.701 35.6847 38.3841L29.467 49.1533C29.0909 49.8047 29.3141 50.6378 29.9655 51.0139C30.18 51.1378 30.4141 51.1966 30.6454 51.1966C31.1161 51.1966 31.5739 50.9522 31.8263 50.5154L38.0426 39.7484C38.5069 39.8774 38.9953 39.9479 39.5002 39.9479C40.005 39.9479 40.4935 39.8774 40.9577 39.7484L47.1741 50.5154C47.4262 50.9522 47.884 51.1966 48.355 51.1966C48.5858 51.1966 48.8201 51.1377 49.0346 51.0139C49.6861 50.6378 49.9094 49.8047 49.5332 49.1533L43.3155 38.3841C44.0107 37.7014 44.5247 36.8342 44.7758 35.8621ZM36.7759 34.5C36.7759 32.998 37.998 31.7758 39.5 31.7758C41.002 31.7758 42.2241 32.998 42.2241 34.5C42.2241 36.002 41.002 37.2241 39.5 37.2241C37.998 37.2241 36.7759 36.002 36.7759 34.5Z" fill="#00B4AB"/>
<path d="M77.6379 33.1379H66.7073C66.2614 24.1261 61.4155 16.2534 54.2788 11.6264L59.7485 2.15253C60.1248 1.50113 59.9014 0.66805 59.25 0.291949C58.5986 -0.0841526 57.7653 0.139056 57.3894 0.790466L51.9224 10.2597C48.1954 8.34212 43.972 7.25859 39.5 7.25859C35.0282 7.25859 30.8046 8.34212 27.0778 10.2597L21.6108 0.790466C21.2348 0.139056 20.4016 -0.0839823 19.7502 0.291949C19.0988 0.66805 18.8756 1.50113 19.2517 2.15253L24.7214 11.6264C17.5845 16.2535 12.7386 24.1263 12.2927 33.1379H1.36207C0.609866 33.1379 0 33.7478 0 34.5C0 35.2522 0.609866 35.862 1.36207 35.862H12.2927C12.7386 44.8737 17.5845 52.7464 24.7212 57.3736L19.2515 66.8474C18.8754 67.4988 19.0986 68.3319 19.75 68.708C19.9645 68.832 20.1986 68.8907 20.4298 68.8907C20.9006 68.8907 21.3584 68.6464 21.6108 68.2095L27.0778 58.7402C30.8046 60.6578 35.0282 61.7414 39.5 61.7414C43.972 61.7414 48.1954 60.6578 51.9224 58.7402L57.3894 68.2095C57.6416 68.6464 58.0994 68.8907 58.5703 68.8907C58.8012 68.8907 59.0355 68.8318 59.25 68.708C59.9014 68.3319 60.1248 67.4988 59.7485 66.8474L54.2788 57.3736C61.4155 52.7466 66.2614 44.8738 66.7073 35.862H77.6379C78.3901 35.862 79 35.2522 79 34.5C79 33.7478 78.3901 33.1379 77.6379 33.1379ZM39.5 59.0172C25.9811 59.0172 14.9828 48.0189 14.9828 34.5C14.9828 20.9811 25.9811 9.98273 39.5 9.98273C53.0189 9.98273 64.0172 20.9811 64.0172 34.5C64.0172 48.0189 53.0189 59.0172 39.5 59.0172Z" fill="#00B4AB"/>
</svg>
