<svg width="244" height="79" viewBox="0 0 244 79" fill="none" xmlns="http://www.w3.org/2000/svg">
<path d="M101.773 40.2051H91.4463V55H88.4189V19.4531H99.9668C103.759 19.4531 106.721 20.3727 108.854 22.2119C110.986 24.0511 112.052 26.6227 112.052 29.9268C112.052 32.2054 111.384 34.2155 110.05 35.957C108.715 37.6986 106.925 38.903 104.679 39.5703L113.565 54.6826V55H110.367L101.773 40.2051ZM91.4463 37.6416H100.65C103.173 37.6416 105.2 36.9255 106.729 35.4932C108.259 34.0609 109.024 32.2054 109.024 29.9268C109.024 27.4202 108.227 25.4753 106.632 24.0918C105.037 22.7083 102.799 22.0166 99.918 22.0166H91.4463V37.6416ZM142.325 55H139.42V42.207H122.403V55H119.498V26.5576H122.403V39.7168H139.42V26.5576H142.325V55ZM166.861 41.499H152.774V52.5342H169.01V55H149.869V26.5576H168.912V29.0723H152.774V39.0088H166.861V41.499ZM174.283 55V26.5576H182.926C185.432 26.5576 187.678 27.0947 189.664 28.1689C191.65 29.2432 193.196 30.765 194.303 32.7344C195.426 34.6875 196.004 36.8929 196.036 39.3506V42.0117C196.036 44.5345 195.491 46.7806 194.4 48.75C193.326 50.7031 191.788 52.2249 189.786 53.3154C187.8 54.4059 185.53 54.9674 182.975 55H174.283ZM177.188 29.0723V52.5342H182.755C185.912 52.5342 188.427 51.582 190.299 49.6777C192.187 47.7734 193.131 45.1693 193.131 41.8652V39.5459C193.131 36.3721 192.211 33.833 190.372 31.9287C188.533 30.0244 186.026 29.0723 182.853 29.0723H177.188ZM219.059 47.4072H205.265L202.237 55H199.21L210.782 26.5576H213.59L225.064 55H222.062L219.059 47.4072ZM206.241 44.917H218.058L212.174 30.0488L206.241 44.917Z" fill="#4DA7B0"/>
<path d="M59.2875 34.3912C59.7147 36.0505 59.9311 37.7695 59.9311 39.5C59.9311 50.7656 50.7657 59.931 39.5 59.931C28.2344 59.931 19.069 50.7656 19.069 39.5C19.069 28.2343 28.2344 19.0689 39.5 19.0689C44.1898 19.0689 48.6 20.614 52.2536 23.5374C52.8412 24.0073 53.6982 23.9121 54.1681 23.3247C54.6381 22.7373 54.5429 21.8802 53.9555 21.4102C49.8729 18.1437 44.7391 16.3448 39.5 16.3448C26.7322 16.3448 16.3448 26.7321 16.3448 39.5C16.3448 52.2678 26.7322 62.6551 39.5 62.6551C52.2677 62.6551 62.6552 52.2678 62.6552 39.5C62.6552 37.5406 62.4099 35.5934 61.9258 33.7122C61.7382 32.9837 60.9959 32.5452 60.2672 32.7325C59.5386 32.9201 59.1 33.6626 59.2875 34.3912Z" fill="#4DA7B0"/>
<path d="M55.9506 25.1409C55.3545 25.5996 55.243 26.4548 55.7016 27.051C56.3597 27.9062 56.9537 28.819 57.4669 29.7643C57.7138 30.2189 58.1818 30.4766 58.665 30.4766C58.8846 30.4766 59.1075 30.4233 59.314 30.3113C59.975 29.9522 60.2198 29.1255 59.8609 28.4644C59.2791 27.3931 58.6062 26.3588 57.8609 25.39C57.402 24.7937 56.5471 24.6821 55.9506 25.1409Z" fill="#4DA7B0"/>
<path d="M44.7758 40.8621H57.2069C57.9591 40.8621 58.569 40.2522 58.569 39.5C58.569 38.7478 57.9591 38.1379 57.2069 38.1379H44.7758C44.5247 37.1657 44.0107 36.2988 43.3153 35.6155L49.533 24.8463C49.9093 24.1949 49.6859 23.3619 49.0345 22.9858C48.3831 22.6095 47.55 22.8329 47.1739 23.4843L40.9576 34.2512C40.4933 34.1222 40.0048 34.0517 39.5 34.0517C38.9952 34.0517 38.5067 34.1222 38.0424 34.2512L31.8261 23.4843C31.45 22.8329 30.6169 22.61 29.9655 22.9858C29.3141 23.3619 29.0909 24.1949 29.467 24.8463L35.6847 35.6155C34.9893 36.2986 34.4753 37.1657 34.2242 38.1377H21.7931C21.0409 38.1377 20.431 38.7476 20.431 39.4998C20.431 40.252 21.0409 40.8619 21.7931 40.8619H34.2242C34.4753 41.8339 34.9893 42.701 35.6847 43.3841L29.467 54.1533C29.0909 54.8047 29.3141 55.6378 29.9655 56.0139C30.18 56.1378 30.4141 56.1966 30.6454 56.1966C31.1161 56.1966 31.5739 55.9522 31.8263 55.5154L38.0426 44.7484C38.5069 44.8774 38.9953 44.9479 39.5002 44.9479C40.005 44.9479 40.4935 44.8774 40.9577 44.7484L47.1741 55.5154C47.4262 55.9522 47.884 56.1966 48.355 56.1966C48.5858 56.1966 48.8201 56.1377 49.0346 56.0139C49.6861 55.6378 49.9094 54.8047 49.5332 54.1533L43.3155 43.3841C44.0107 42.7014 44.5247 41.8342 44.7758 40.8621ZM36.7759 39.5C36.7759 37.998 37.998 36.7758 39.5 36.7758C41.002 36.7758 42.2241 37.998 42.2241 39.5C42.2241 41.002 41.002 42.2241 39.5 42.2241C37.998 42.2241 36.7759 41.002 36.7759 39.5Z" fill="#4DA7B0"/>
<path d="M77.6379 38.1379H66.7073C66.2614 29.1261 61.4155 21.2534 54.2788 16.6264L59.7485 7.15253C60.1248 6.50113 59.9014 5.66805 59.25 5.29195C58.5986 4.91585 57.7653 5.13906 57.3894 5.79047L51.9224 15.2597C48.1954 13.3421 43.972 12.2586 39.5 12.2586C35.0282 12.2586 30.8046 13.3421 27.0778 15.2597L21.6108 5.79047C21.2348 5.13906 20.4016 4.91602 19.7502 5.29195C19.0988 5.66805 18.8756 6.50113 19.2517 7.15253L24.7214 16.6264C17.5845 21.2535 12.7386 29.1263 12.2927 38.1379H1.36207C0.609866 38.1379 0 38.7478 0 39.5C0 40.2522 0.609866 40.862 1.36207 40.862H12.2927C12.7386 49.8737 17.5845 57.7464 24.7212 62.3736L19.2515 71.8474C18.8754 72.4988 19.0986 73.3319 19.75 73.708C19.9645 73.832 20.1986 73.8907 20.4298 73.8907C20.9006 73.8907 21.3584 73.6464 21.6108 73.2095L27.0778 63.7402C30.8046 65.6578 35.0282 66.7414 39.5 66.7414C43.972 66.7414 48.1954 65.6578 51.9224 63.7402L57.3894 73.2095C57.6416 73.6464 58.0994 73.8907 58.5703 73.8907C58.8012 73.8907 59.0355 73.8318 59.25 73.708C59.9014 73.3319 60.1248 72.4988 59.7485 71.8474L54.2788 62.3736C61.4155 57.7466 66.2614 49.8738 66.7073 40.862H77.6379C78.3901 40.862 79 40.2522 79 39.5C79 38.7478 78.3901 38.1379 77.6379 38.1379ZM39.5 64.0172C25.9811 64.0172 14.9828 53.0189 14.9828 39.5C14.9828 25.9811 25.9811 14.9827 39.5 14.9827C53.0189 14.9827 64.0172 25.9811 64.0172 39.5C64.0172 53.0189 53.0189 64.0172 39.5 64.0172Z" fill="#4DA7B0"/>
</svg>
