<svg width="28" height="25" viewBox="0 0 28 25" fill="none" xmlns="http://www.w3.org/2000/svg">
<g clip-path="url(#clip0)">
<path d="M0.139784 12.1778C0.180613 12.0837 1.16365 9.84777 3.28134 7.59469C6.13223 4.56153 9.6853 2.95825 13.5563 2.95825C17.4274 2.95825 20.9804 4.56153 23.8313 7.59474C25.9489 9.84782 26.932 12.0838 26.9729 12.1779L27.1125 12.5L26.9728 12.8221C26.932 12.9162 25.9489 15.1522 23.8312 17.4053C20.9804 20.4384 17.4273 22.0417 13.5563 22.0417C9.68524 22.0417 6.13223 20.4384 3.28134 17.4053C1.1637 15.1522 0.180613 12.9162 0.139784 12.8221L3.8147e-05 12.5L0.139784 12.1778ZM13.5563 18.572C17.1874 18.572 20.1415 15.8481 20.1415 12.5C20.1415 9.15187 17.1874 6.42794 13.5563 6.42794C9.92533 6.42794 6.97124 9.15187 6.97124 12.5C6.97124 15.8481 9.92528 18.572 13.5563 18.572Z" fill="#4DA7B0"/>
<path d="M13.5564 8.16284C16.1499 8.16284 18.26 10.1085 18.26 12.5C18.26 14.8915 16.1499 16.8372 13.5564 16.8372C10.9628 16.8372 8.85272 14.8915 8.85272 12.5C8.85272 10.1085 10.9628 8.16284 13.5564 8.16284ZM16.0211 11.7425C16.0211 11.2641 16.5398 11.7425 16.0211 11.7425L16.0238 11.686C16.0238 10.2511 17.5773 11.7425 16.0211 11.7425Z" fill="#4DA7B0"/>
</g>
<defs>
<clipPath id="clip0">
<rect width="27.1125" height="25" transform="matrix(-1 0 0 1 27.1125 0)" fill="white"/>
</clipPath>
</defs>
</svg>
